<?xml version="1.0" encoding="utf-8"?><!-- Uploaded to: SVG Repo, www.svgrepo.com, Generator: SVG Repo Mixer Tools -->
<svg width="32" height="32" viewBox="0 0 24 24" fill="#aaaaad" xmlns="http://www.w3.org/2000/svg">
<path d="M3 5C2.44772 5 2 5.44772 2 6C2 6.55228 2.44772 7 3 7H21C21.5523 7 22 6.55228 22 6C22 5.44772 21.5523 5 21 5H3Z" fill="#aaaaad"/>
<path d="M3 13C2.44772 13 2 13.4477 2 14C2 14.5523 2.44772 15 3 15H21C21.5523 15 22 14.5523 22 14C22 13.4477 21.5523 13 21 13H3Z" fill="#aaaaad"/>
<path d="M2 10C2 9.44772 2.44772 9 3 9H15C15.5523 9 16 9.44772 16 10C16 10.5523 15.5523 11 15 11H3C2.44772 11 2 10.5523 2 10Z" fill="#aaaaad"/>
<path d="M3 17C2.44772 17 2 17.4477 2 18C2 18.5523 2.44772 19 3 19H15C15.5523 19 16 18.5523 16 18C16 17.4477 15.5523 17 15 17H3Z" fill="#aaaaad"/>
</svg>