<?xml version="1.0" encoding="iso-8859-1"?>
<!-- Uploaded to: SVG Repo, www.svgrepo.com, Generator: SVG Repo Mixer Tools -->
<svg height="16px" width="16px" version="1.1" id="Layer_1" xmlns="http://www.w3.org/2000/svg" xmlns:xlink="http://www.w3.org/1999/xlink" 
	 viewBox="0 0 512 512" xml:space="preserve" >
<g>
	<g>
		<g>
			<path fill="#aaaaad" d="M102.38,120.188H339.5c11.548,0,20.911-9.362,20.911-20.91s-9.362-20.911-20.911-20.911H102.38
				c-11.548,0-20.91,9.362-20.91,20.911S90.832,120.188,102.38,120.188z" />
			<path fill="#aaaaad" d="M102.38,191.875h181.403c11.548,0,20.91-9.362,20.91-20.911s-9.362-20.91-20.91-20.91H102.38
				c-11.548,0-20.91,9.362-20.91,20.91S90.832,191.875,102.38,191.875z"/>
			<path fill="#aaaaad" d="M102.38,263.561h181.403c11.548,0,20.91-9.362,20.91-20.91s-9.362-20.91-20.91-20.91H102.38
				c-11.548,0-20.91,9.362-20.91,20.91S90.832,263.561,102.38,263.561z"/>
			<path fill="#aaaaad" d="M211.293,314.337c0-11.548-9.362-20.91-20.91-20.91H102.38c-11.548,0-20.91,9.362-20.91,20.91
				s9.362,20.91,20.91,20.91h88.002C201.93,335.248,211.293,325.886,211.293,314.337z"/>
			<path fill="#aaaaad" d="M424.536,163.485V20.91c0-11.548-9.362-20.91-20.91-20.91H38.25C26.702,0,17.34,9.362,17.34,20.91
				V491.09c0,11.548,9.362,20.91,20.91,20.91h365.376c11.548,0,20.91-9.362,20.91-20.91V310.596l53.555-53.555l0.001-0.001
				C518.336,216.791,479.336,149.345,424.536,163.485z M382.715,470.179H59.161V41.821h323.555V194.38L217.697,359.4
				c-2.784,2.778-4.936,6.622-5.755,10.875l-11.977,61.349c-2.523,12.913,7.387,24.917,20.523,24.917
				c2.851,0-1.427,0.673,65.444-12.382c4.25-0.85,7.963-2.92,10.781-5.741l86.002-86.002V470.179z M448.521,227.468
				c-15.606,15.606-142.017,142.016-166.592,166.591l-19.875-19.875c3.997-3.997,163.538-163.538,166.585-166.584
				C441.762,194.49,461.684,214.304,448.521,227.468z"/>
		</g>
	</g>
</g>
</svg>